<?xml version="1.0" ?>
<!-- Uploaded to: SVG Repo, www.svgrepo.com, Generator: SVG Repo Mixer Tools -->
<svg width="800px" height="800px" viewBox="0 0 24 24" version="1.1" xml:space="preserve" xmlns="http://www.w3.org/2000/svg" xmlns:xlink="http://www.w3.org/1999/xlink">
<style type="text/css">
	.st0{opacity:0.2;fill:none;stroke:#000000;stroke-width:5.000000e-02;stroke-miterlimit:10;}
</style>
<g id="Layer_Grid"/>
<g id="Layer_2">
<path d="M4,19.4c0.7,1.2,1.9,1.9,3.3,2.1c0,0,0.1,0,0.1,0c0,0,0.1,0,0.1,0l3.9-0.5c0.2,0,0.4,0,0.6,0c0,0,0.1,0,0.1,0l0,0   c0.2,0,0.4,0,0.5,0l3.9,0.5c0.1,0,0.2,0,0.2,0c2.3-0.3,4-2.1,4-4.4c0-0.5-0.1-1.1-0.3-1.6c-0.1-0.1-0.1-0.3-0.3-0.4l0.3-1.9   c0.4-2.2-0.2-4.5-1.6-6.1c-1.3-1.5-3-2.5-4.9-2.9c0-0.1,0-0.1,0-0.2c0-0.6-0.4-1-1-1h-2c-0.6,0-1,0.4-1,1c0,0.1,0,0.1,0,0.2   C8,4.7,6.1,5.9,4.8,7.6c-1.1,1.5-1.6,3.6-1.3,5.6l0.3,1.9c-0.1,0.1-0.2,0.2-0.3,0.4C3.1,16.8,3.3,18.2,4,19.4z M17.3,8.5   c1,1.2,1.5,2.8,1.2,4.5l-0.3,1.6c-0.1,0-0.3-0.1-0.4-0.1c-0.2,0-0.4-0.1-0.6-0.1c-0.4-0.1-0.7-0.1-1.1-0.2c-0.2,0-0.4-0.1-0.6-0.1   c1-3.1,0.3-5.7-0.9-7.6C15.6,6.9,16.6,7.6,17.3,8.5z M12,6.4c1,1.2,2.9,3.9,1.4,7.5c-0.5,0-0.9,0-1.4,0s-0.9,0-1.4,0   C9.1,10.3,11,7.5,12,6.4z M6.4,8.8c0.8-1.1,1.9-1.9,3-2.3C8.3,8.4,7.5,11,8.5,14.1c0,0,0,0,0,0c-0.2,0-0.4,0-0.6,0.1   c-0.4,0.1-0.8,0.1-1.1,0.2c-0.2,0-0.4,0.1-0.6,0.1c-0.1,0-0.3,0.1-0.4,0.1l-0.3-1.7C5.2,11.4,5.6,9.9,6.4,8.8z M5.3,16.7   c0.3-0.1,0.5-0.1,0.8-0.2c0.3-0.1,0.5-0.1,0.8-0.2c0.3-0.1,0.7-0.1,1-0.2c0.2,0,0.4-0.1,0.7-0.1C9,16.1,9.4,16,9.9,16   c0.1,0,0.3,0,0.4,0c1.1-0.1,2.3-0.1,3.4,0c0.1,0,0.3,0,0.4,0c0.4,0,0.9,0.1,1.3,0.1c0.2,0,0.4,0.1,0.7,0.1c0.3,0,0.7,0.1,1,0.2   c0.3,0,0.5,0.1,0.8,0.2c0.3,0.1,0.5,0.1,0.8,0.2c0,0.1,0,0.2,0,0.4c0,1.2-0.9,2.2-2.1,2.4L12.9,19c-0.2,0-0.5,0-0.8,0   c0,0-0.1,0-0.1,0c0,0-0.1,0-0.1,0c-0.3,0-0.5,0-0.8,0l-3.7,0.5c-0.7-0.1-1.3-0.5-1.7-1.1C5.4,17.8,5.3,17.3,5.3,16.7z"/>
</g>
</svg>