<?xml version="1.0" encoding="iso-8859-1"?>
<!-- Uploaded to: SVG Repo, www.svgrepo.com, Generator: SVG Repo Mixer Tools -->
<svg fill="#000000" height="800px" width="800px" version="1.1" id="Capa_1" xmlns="http://www.w3.org/2000/svg" xmlns:xlink="http://www.w3.org/1999/xlink" 
	 viewBox="0 0 407.268 407.268" xml:space="preserve">
<path id="XMLID_704_" d="M345.745,226.558v171.709c0,4.971-4.029,9-9,9H70.521c-4.971,0-9-4.029-9-9V226.558c0-4.971,4.029-9,9-9
	s9,4.029,9,9v162.709h248.225V226.558c0-4.971,4.029-9,9-9S345.745,221.587,345.745,226.558z M212.633,196.869v-1.899
	c0-4.971-4.029-9-9-9s-9,4.029-9,9v1.899c0,4.971,4.029,9,9,9S212.633,201.839,212.633,196.869z M407.268,112.398v76.726
	c0,4.97-4.028,8.999-8.998,9l-97.318,0.017c-2.388,0-4.677-0.948-6.365-2.636c-1.688-1.688-2.637-3.977-2.637-6.364v-58.495
	c0-4.971,4.029-9,9-9s9,4.029,9,9v49.493l79.318-0.014v-64.387l-72.771-84.513h-34.335l-42.457,87.457
	c-1.506,3.101-4.649,5.069-8.097,5.069h-18.975v39.258c0,4.971-4.029,9-9,9s-9-4.029-9-9v-39.258h-18.979
	c-3.447,0-6.591-1.969-8.097-5.07l-42.453-87.457H90.77L18,115.739v64.387l79.314,0.014v-49.493c0-4.971,4.029-9,9-9s9,4.029,9,9
	v58.495c0,2.387-0.948,4.677-2.637,6.364c-1.688,1.688-3.977,2.636-6.363,2.636c-0.001,0-0.001,0-0.002,0l-97.314-0.017
	c-4.97-0.001-8.998-4.03-8.998-9v-76.726c0-2.155,0.773-4.239,2.18-5.873l77.643-90.172c1.71-1.985,4.2-3.127,6.82-3.127h29.724
	l-0.144-0.296c-1.354-2.789-1.177-6.079,0.469-8.707S121.219,0,124.319,0h158.627c3.101,0,5.982,1.596,7.628,4.224
	s1.822,5.917,0.469,8.707l-0.144,0.296h29.724c2.62,0,5.11,1.142,6.82,3.127l77.645,90.172
	C406.494,108.159,407.268,110.243,407.268,112.398z M194.633,73.164L167.853,18h-29.16l42.598,87.752h13.343V73.164z M219.403,18
	h-31.542l15.771,32.486L219.403,18z M268.573,18h-29.161l-26.779,55.163v32.589h13.34L268.573,18z"/>
</svg>